<?xml version="1.0" encoding="UTF-8" standalone="no"?>
<!-- Generator: Adobe Illustrator 23.0.4, SVG Export Plug-In . SVG Version: 6.00 Build 0)  -->

<svg
   xmlns:dc="http://purl.org/dc/elements/1.1/"
   xmlns:cc="http://creativecommons.org/ns#"
   xmlns:rdf="http://www.w3.org/1999/02/22-rdf-syntax-ns#"
   xmlns:svg="http://www.w3.org/2000/svg"
   xmlns="http://www.w3.org/2000/svg"
   xmlns:xlink="http://www.w3.org/1999/xlink"
   xmlns:sodipodi="http://sodipodi.sourceforge.net/DTD/sodipodi-0.dtd"
   xmlns:inkscape="http://www.inkscape.org/namespaces/inkscape"
   version="1.1"
   id="Layer_1"
   x="0px"
   y="0px"
   viewBox="0 0 127.99998 127.99999"
   xml:space="preserve"
   sodipodi:docname="favicon.svg"
   inkscape:version="0.92.4 (unknown)"
   width="33.866665mm"
   height="33.866665mm"><metadata
   id="metadata35"><rdf:RDF><cc:Work
       rdf:about=""><dc:format>image/svg+xml</dc:format><dc:type
         rdf:resource="http://purl.org/dc/dcmitype/StillImage" /><dc:title></dc:title></cc:Work></rdf:RDF></metadata><defs
   id="defs33">
	<defs
   id="defs5">
		<rect
   y="0"
   x="0"
   height="118.2"
   width="587.40002"
   id="SVGID_1_" />
	</defs>
	<clipPath
   id="SVGID_2_">
		<use
   height="100%"
   width="100%"
   y="0"
   x="0"
   id="use7"
   style="overflow:visible"
   xlink:href="#SVGID_1_" />
	</clipPath>
	
</defs><sodipodi:namedview
   pagecolor="#ffffff"
   bordercolor="#666666"
   borderopacity="1"
   objecttolerance="10"
   gridtolerance="10"
   guidetolerance="10"
   inkscape:pageopacity="0"
   inkscape:pageshadow="2"
   inkscape:window-width="1920"
   inkscape:window-height="1025"
   id="namedview31"
   showgrid="false"
   inkscape:zoom="1.4156581"
   inkscape:cx="-95.175552"
   inkscape:cy="45.716162"
   inkscape:window-x="0"
   inkscape:window-y="27"
   inkscape:window-maximized="1"
   inkscape:current-layer="Layer_1"
   fit-margin-top="0"
   fit-margin-left="0"
   fit-margin-right="0"
   fit-margin-bottom="0"
   units="mm" />
<style
   type="text/css"
   id="style2">
	.st0{clip-path:url(#SVGID_2_);}
	.st1{fill:#4E8FD8;}
	.st2{fill:#4E90D8;}
</style>
<circle
   cy="64"
   cx="64"
   id="path4586"
   style="fill:#ffffff;fill-opacity:1;stroke-width:1.44442022"
   r="64" />
<g
   inkscape:groupmode="layer"
   id="layer2"
   inkscape:label="Circle"
   transform="translate(-305.8648,156.63114)" /><g
   inkscape:groupmode="layer"
   id="layer3"
   inkscape:label="Town"
   transform="translate(-305.8648,156.63114)" /><g
   transform="matrix(0.79447899,0,0,0.79539413,-352.3623,8.65146)"
   id="g4570"><path
     class="st1"
     d="m 524,115.88 c -19.19,0 -38.39,-0.06 -57.58,0.07 -2.71,0.02 -3.32,-0.77 -3.28,-3.36 0.14,-8.14 -0.52,-7.8 7.67,-7.55 2.76,0.09 3.3,-0.82 3.26,-3.38 -0.16,-8.68 -0.82,-8.15 7.74,-7.94 2.78,0.07 3.28,-0.91 3.26,-3.43 -0.11,-14.89 -0.06,-29.79 -0.04,-44.68 0,-1.39 0.13,-2.79 0.3,-4.18 0.22,-1.84 1.39,-2.96 3.18,-3.03 5.04,-0.2 7.84,-0.87 7.76,6.45 -0.17,15.29 0.01,30.59 -0.11,45.88 -0.02,2.43 0.72,3.19 3.04,2.96 1.68,-0.17 3.41,-0.18 5.09,0 2.47,0.27 2.99,-0.8 2.97,-3.08 -0.09,-14.99 -0.05,-29.99 -0.04,-44.98 0,-1.3 0.12,-2.59 0.21,-3.89 0.06,-0.81 0.23,-1.62 0.86,-2.18 2.34,-2.07 5.15,-1.45 7.7,-0.89 2,0.43 2.35,2.45 2.34,4.38 -0.02,15.79 0.06,31.59 -0.08,47.38 -0.02,2.72 0.79,3.34 3.38,3.29 7.66,-0.14 7.66,-0.03 7.66,-7.63 0,-13.9 0.14,-27.79 -0.06,-41.68 -0.09,-6.44 3.33,-6.81 8.86,-5.69 2.21,0.45 2.42,2.7 2.43,4.66 0.02,7 0.01,14 0.01,20.99 0,8.8 0.06,17.59 -0.04,26.39 -0.03,2.13 0.41,2.97 2.78,2.96 8.23,-0.02 8.23,0.08 8.23,-8.26 0,-13.7 0.14,-27.39 -0.06,-41.09 -0.09,-6.45 3.42,-6.79 8.88,-5.65 2.21,0.46 2.4,2.71 2.41,4.67 0.02,7.6 0.01,15.19 0.01,22.79 0,8.2 0.07,16.4 -0.05,24.59 -0.03,2.16 0.47,2.96 2.8,2.93 8.83,-0.11 8.31,-1.1 8.15,8.16 -0.04,2.52 0.7,3.51 3.18,3.11 0.19,-0.03 0.4,-0.03 0.6,0 2.22,0.3 5.11,-1.09 6.54,0.92 1.78,2.5 0.72,5.82 0.8,8.79 0.03,1.33 -1.09,1.19 -1.97,1.19 -2.5,0.01 -5,0.01 -7.5,0.01 -17.1,0 -34.2,0 -51.29,0 z"
     id="path10"
     inkscape:connector-curvature="0"
     style="fill:#4e8fd8" /><path
     class="st1"
     d="m 523.78,33.216385 c -13.68,0 -27.36,0 -41.05,0 -0.6,0 -1.2,0 -1.8,0 -1.77,0 -3.46,-0.16 -3.98,-2.32 -0.49,-2.05 0.63,-3.11 2.28,-4.01 8.6,-4.67 17.16,-9.39 25.74,-14.09 5.25,-2.8799997 10.55,-5.6799997 15.73,-8.6799997 2.11,-1.22 3.9,-1.4 6.11,-0.18 13.91,7.6499997 27.87,15.1999997 41.82,22.7499997 1.75,0.95 2.97,2.21 2.38,4.29 -0.56,1.99 -2.32,2.24 -4.11,2.24 -14.36,0 -28.74,0 -43.12,0 z"
     id="path16"
     inkscape:connector-curvature="0"
     style="fill:#4e8fd8" /></g></svg>